<?xml version="1.0" encoding="utf-8"?>
<!-- Generator: Adobe Illustrator 16.0.4, SVG Export Plug-In . SVG Version: 6.00 Build 0)  -->
<!DOCTYPE svg PUBLIC "-//W3C//DTD SVG 1.1 Tiny//EN" "http://www.w3.org/Graphics/SVG/1.1/DTD/svg11-tiny.dtd">
<svg version="1.1" baseProfile="tiny" id="Layer_1" xmlns="http://www.w3.org/2000/svg" xmlns:xlink="http://www.w3.org/1999/xlink"
	 x="0px" y="0px" width="186.3px" height="127.6px" viewBox="0 0 186.3 127.6" xml:space="preserve">
<g>
	<path fill="#809ea7" d="M47.6,71.9h-0.5V7.7h-8.6V7.2c0-1.3-1.1-2.4-2.4-2.4H16.3c-1.3,0-2.4,1.1-2.4,2.4v0.6H5.3v64.2H4.8
		c-1.3,0-2.4,1.1-2.4,2.4v2c0,1.3,1.1,2.4,2.4,2.4h42.8c1.3,0,2.4-1.1,2.4-2.4v-2C50,73,48.9,71.9,47.6,71.9z M39.2,69.4h-9.2V26.4
		l3.5-5.8h2.3l3.5,5.8V69.4z M13.1,26.4l3.5-5.8h2.3l3.5,5.8v42.9h-9.2V26.4z"/>
	<g>
		<path fill="#809ea7" d="M47.6,78.8H4.8c-1.3,0-2.4,1.8-2.4,4.1v3.5c0,2.3,1.1,4.1,2.4,4.1h0.5v37h7.9V94.9h9.2v32.6h7.7V94.9h9.2
			v32.6h7.9v-37h0.5c1.3,0,2.4-1.8,2.4-4.1v-3.5C50,80.6,48.9,78.8,47.6,78.8z"/>
		<path fill="#809ea7" d="M186,120.1c0-0.6,0.1-1.1,0.1-1.6c-0.5,0-0.9,0-1.4,0c-34.2,0-62.6-7.6-86-18.8V65.1
			c21,14.4,43.8,24.5,67.5,31.7l0.9-3.8c-24.2-7.4-47.3-17.8-68.4-32.6v-0.7h-1c-7.2-5.1-14.2-10.8-20.9-17v0h-0.1
			c-2.1-2-4.2-4-6.3-6.1c-1-1.2-2.2-2.9-3.4-4.3L67,32.2L67,32.2c-1.8-1.6-3.3-3.3-4.8-5c-5.1-7-10.4-13-14.1-20.4l-3,1.9
			c1.9,3.8,4.2,7.2,6.6,10.5v48.2c-1.7-1.6-3.4-3.2-5-4.8c-14.1-14-24-27.9-30.5-38.4c-3.2-5.2-5.6-9.6-7.1-12.6
			c-0.8-1.5-1.3-2.7-1.7-3.5C7.2,7.7,7,7.4,7,7.2C6.9,7,6.8,6.9,6.8,6.9L3.7,8.6v0c0.1,0.2,12,28.6,40.7,57c2.3,2.3,4.7,4.6,7.3,6.9
			v55.1h3.5V75.5c2.5,2.1,5,4.2,7.7,6.3v45.8H66V84.2c2.5,1.9,5.2,3.8,7.9,5.6v37.8h3.1V91.8c2.6,1.7,5.3,3.3,8.1,4.9v30.9h2.8V98.3
			c2.7,1.5,5.4,2.9,8.2,4.3v25h2.7v-23.7c23.5,11.1,52,18.5,86,18.5c0.5,0,1,0,1.5,0C186.1,121.7,186,120.9,186,120.1z M62.8,77
			c-2.7-2.1-5.2-4.3-7.7-6.5V23.8c1.5,2,3,3.9,4.4,5.9l0.1,0.1l0.1,0.1c1,1.1,2,2.2,3.1,3.4V77z M73.9,85.3
			c-2.7-1.9-5.3-3.8-7.9-5.7V36.7c0.7,0.9,1.4,1.8,2.1,2.7l0,0l0,0c1.9,1.9,3.8,3.7,5.7,5.5V85.3z M85,92.3c-2.8-1.6-5.5-3.3-8.1-5
			V47.8c2.6,2.4,5.3,4.7,8.1,6.9V92.3z M96.1,98.4c-2.8-1.4-5.6-2.9-8.2-4.4V57c2.7,2.1,5.5,4.2,8.2,6.1V98.4z"/>
	</g>
	<path fill="#F2F2F2" d="M43.9,67.2h-0.5V3h-8.6V2.4c0-1.3-1.1-2.4-2.4-2.4H12.6c-1.3,0-2.4,1.1-2.4,2.4V3H1.6v64.2H1.1
		c-1.3,0-2.4,1.1-2.4,2.4v2c0,1.3,1.1,2.4,2.4,2.4h42.8c1.3,0,2.4-1.1,2.4-2.4v-2C46.3,68.3,45.3,67.2,43.9,67.2z M35.6,64.6h-9.2
		V21.7l3.5-5.8h2.3l3.5,5.8V64.6z M9.4,21.7l3.5-5.8h2.3l3.5,5.8v42.9H9.4V21.7z"/>
	<g>
		<path fill="#F2F2F2" d="M43.9,74.1H1.1c-1.3,0-2.4,1.8-2.4,4.1v3.5c0,2.3,1.1,4.1,2.4,4.1h0.5v37h7.9V90.1h9.2v32.6h7.7V90.1h9.2
			v32.6h7.9v-37h0.5c1.3,0,2.4-1.8,2.4-4.1v-3.5C46.3,75.9,45.3,74.1,43.9,74.1z"/>
		<path fill="#F2F2F2" d="M182.4,115.4c0-0.6,0-1.1,0.1-1.6c-0.5,0-0.9,0-1.4,0c-34.2,0-62.6-7.6-86-18.8V60.3
			c21,14.4,43.8,24.5,67.5,31.7l0.9-3.8c-24.2-7.4-47.3-17.8-68.4-32.6V55h-1c-7.2-5.1-14.2-10.8-20.9-17v0h-0.1
			c-2.1-2-4.2-4-6.3-6.1c-1-1.2-2.2-2.9-3.4-4.3l-0.1-0.1l-0.1-0.1c-1.8-1.6-3.3-3.3-4.8-5c-5.1-7-10.4-13-14.1-20.4l-3,1.9
			c1.9,3.8,4.2,7.2,6.6,10.5v48.2c-1.7-1.6-3.4-3.2-5-4.8c-14.1-14-24-27.9-30.5-38.4C9.3,14.3,6.9,9.9,5.4,6.9
			C4.6,5.4,4,4.2,3.7,3.4C3.5,3,3.4,2.7,3.3,2.5C3.2,2.3,3.1,2.2,3.1,2.2L0,3.8l0,0c0.1,0.2,12,28.6,40.7,57
			c2.3,2.3,4.7,4.6,7.3,6.9v55.1h3.5V70.8c2.5,2.1,5,4.2,7.7,6.3v45.8h3.2V79.5c2.5,1.9,5.2,3.8,7.9,5.6v37.8h3.1V87.1
			c2.6,1.7,5.3,3.3,8.1,4.9v30.9h2.8V93.6c2.7,1.5,5.4,2.9,8.2,4.3v25h2.7V99.2c23.5,11.1,52,18.5,86,18.5c0.5,0,1,0,1.5,0
			C182.5,116.9,182.4,116.2,182.4,115.4z M59.1,72.3c-2.7-2.1-5.2-4.3-7.7-6.5V19.1c1.5,1.9,3,3.9,4.4,5.9l0.1,0.1l0.1,0.1
			c1,1.1,2,2.2,3.1,3.4V72.3z M70.2,80.5c-2.7-1.9-5.3-3.8-7.9-5.7V32c0.7,0.9,1.4,1.8,2.1,2.7l0,0l0,0c1.9,1.9,3.8,3.7,5.7,5.5
			V80.5z M81.3,87.6c-2.8-1.6-5.5-3.3-8.1-5V43.1c2.6,2.4,5.3,4.7,8.1,6.9V87.6z M92.4,93.6c-2.8-1.4-5.6-2.9-8.2-4.4v-37
			c2.7,2.1,5.5,4.2,8.2,6.1V93.6z"/>
	</g>
</g>
<g>
</g>
<g>
</g>
<g>
</g>
<g>
</g>
<g>
</g>
<g>
</g>
</svg>
