<?xml version="1.0" encoding="utf-8"?>
<!-- Generator: Adobe Illustrator 16.0.4, SVG Export Plug-In . SVG Version: 6.00 Build 0)  -->
<!DOCTYPE svg PUBLIC "-//W3C//DTD SVG 1.1 Tiny//EN" "http://www.w3.org/Graphics/SVG/1.1/DTD/svg11-tiny.dtd">
<svg version="1.1" baseProfile="tiny" id="Layer_1" xmlns="http://www.w3.org/2000/svg" xmlns:xlink="http://www.w3.org/1999/xlink"
	 x="0px" y="0px" width="75.6px" height="246.5px" viewBox="0 0 75.6 246.5" xml:space="preserve">
<g>
	<path fill-rule="evenodd" fill="#809ea7" d="M75.6,246.5l-0.3-24.8h-2.6l-0.1-4h-0.8l-0.3-23.2h-5.1l0-3.5h-3.1l-0.1-10h-1.8l0-1.7
		l-3,0l-1.2-91.1h-5.6l-0.3-26.9h-1.7l-0.1-4.2c0-1.2-0.7-2.4-1.8-3.4c-0.2-0.2-0.5-0.4-0.8-0.7v0c-0.1-0.1-0.4-0.3-0.5-0.3l0-3.3
		c0-1.8-0.8-3.5-1.9-4.8l0-3.4c0-1.5-0.5-2.8-1.3-3.9l0-2.2c0-2.6-1.4-4.9-3.3-5.9l-0.1-6c0-1-0.6-1.8-1.5-2.1L37.9,1.4
		c0-0.5-0.4-0.9-0.9-0.9c-0.5,0-0.9,0.4-0.9,0.9l0.3,19.8c-0.8,0.3-1.4,1.2-1.4,2.1l0.1,6c-1.9,1-3.1,3.3-3.1,5.9l0,2.2
		c-0.8,1.1-1.3,2.5-1.2,3.9l0,3.4c-1.2,1.3-1.8,3-1.8,4.8l0,3.3c-1.9,1.2-3,2.7-3,4.4l0.1,4.2h-1.7l0.3,26.9h-0.7h-5l1.2,91.1h-2.1
		l0,1.7h-0.9l0.1,10l-4.3,0l0,3.4l-4.6,0l0.3,23.2l-3.6,0l0.1,6.2l0,0l0.3,22.7L75.6,246.5z"/>
	<g>
		<path fill-rule="evenodd" fill="#F2F2F2" d="M33,23.9c0,0.5-0.4,0.9-0.9,0.9l0,0c-0.5,0-0.9-0.4-0.9-0.9l-0.3-23
			c0-0.5,0.4-0.9,0.9-0.9l0,0c0.5,0,0.9,0.4,0.9,0.9L33,23.9z"/>
		<path fill-rule="evenodd" fill="#F2F2F2" d="M34.5,34.8c0,1.3-1,2.3-2.3,2.3l0,0c-1.3,0-2.3-1-2.4-2.3l-0.2-11.9
			c0-1.3,1-2.3,2.3-2.3l0,0c1.3,0,2.3,1,2.4,2.3L34.5,34.8z"/>
		<path fill-rule="evenodd" fill="#E6E6E6" d="M38.2,71.9c0.1,3.6-2.4,6.5-5.4,6.5l0,0c-3,0-5.5-2.9-5.6-6.5l-0.5-37.2
			c0-3.6,2.4-6.5,5.4-6.5l0,0c3.1,0,5.6,2.9,5.6,6.5L38.2,71.9z"/>
		<path fill-rule="evenodd" fill="#F2F2F2" d="M39.6,79.2c0.1,3.7-3,6.8-6.7,6.8l0,0c-3.7,0-6.8-3-6.9-6.8l-0.5-38.4
			c0-3.7,3-6.8,6.7-6.8l0,0c3.8,0,6.9,3,6.9,6.8L39.6,79.2z"/>
		<polygon fill-rule="evenodd" fill="#F2F2F2" points="46.4,96.9 19.6,96.9 19.1,60.8 45.9,60.8 		"/>
		<path fill-rule="evenodd" fill="#E6E6E6" d="M44.7,94c0,3.6-5.2,6.6-11.7,6.6l0,0c-6.5,0-11.8-2.9-11.8-6.6l-0.5-37.3
			c0-3.6,5.2-6.6,11.6-6.6l0,0c4.2,0,8,1.3,10.1,3.1c1.1,1,1.7,2.2,1.8,3.4L44.7,94z"/>
		<path fill-rule="evenodd" fill="#CCCCCC" d="M41.1,52.3c-3.5-1.6-7.7-1-11.5-1.2c-1.8-0.1-3.6-0.2-5.3,0.1l0.5,41.7
			c0.1,4.3,4,7.7,8.8,7.7c4.8,0,8.6-3.5,8.6-7.7l-0.5-40.2C41.5,52.5,41.2,52.3,41.1,52.3z"/>
		<path fill-rule="evenodd" fill="#E6E6E6" d="M41.6,92.8c0.1,4.3-3.8,7.7-8.6,7.7l0,0c-4.8,0-8.7-3.4-8.8-7.7L23.7,49
			c-0.1-4.3,3.8-7.7,8.6-7.7l0,0c4.8,0,8.7,3.4,8.8,7.7L41.6,92.8z"/>
		<polygon fill-rule="evenodd" fill="#F2F2F2" points="53.1,182.2 15,182.2 13.8,87.7 51.9,87.7 		"/>
		<polygon fill-rule="evenodd" fill="#F2F2F2" points="53.1,182.2 45.8,182.2 44.6,87.7 51.9,87.7 		"/>
		<path fill-rule="evenodd" fill="#CCCCCC" d="M40.7,88l-0.4-32.6c-0.1-3.7-3.1-6.8-6.9-6.8c-3.7,0-6.8,3-6.7,6.8L27.1,88H40.7z"/>
		<path fill-rule="evenodd" fill="#F2F2F2" d="M39.8,93.8c0,3.7-3,6.8-6.7,6.8l0,0c-3.7,0-6.8-3-6.9-6.8l-0.5-38.4
			c0-3.7,3-6.8,6.7-6.8l0,0c3.8,0,6.8,3,6.9,6.8L39.8,93.8z"/>
		<polygon fill-rule="evenodd" fill="#CCCCCC" points="42.2,205.7 40.7,88.6 27.1,88.6 28.6,205.7 		"/>
		<polygon fill-rule="evenodd" fill="#E6E6E6" points="41.2,204.7 39.7,87.5 26.1,87.5 27.6,204.7 		"/>
		<polygon fill-rule="evenodd" fill="#E6E6E6" points="58.2,199.6 12.2,199.6 12,180.6 57.9,180.6 		"/>
		<polygon fill-rule="evenodd" fill="#F2F2F2" points="27.4,182.2 20,182.2 18.8,87.7 26.1,87.7 		"/>
		<polygon fill-rule="evenodd" fill="#F2F2F2" points="66.6,221.7 3.6,221.7 3.2,194 66.2,194 		"/>
		<polygon fill-rule="evenodd" fill="#E6E6E6" points="0,221.2 0.3,246 70.3,246 70,221.2 		"/>
		<polygon fill-rule="evenodd" fill="#E6E6E6" points="56.1,182.4 12.9,182.4 12.9,178.8 56.1,178.8 		"/>
		<polygon fill-rule="evenodd" fill="#F2F2F2" points="61.2,196 7.9,196 7.8,190.5 61.1,190.5 		"/>
		<polygon fill-rule="evenodd" fill="#E6E6E6" points="-0.1,217.2 0,223.3 67.4,223.3 67.4,217.1 		"/>
		<g>
			<path fill-rule="evenodd" fill="#CCCCCC" d="M38,87.1l-0.4-28.5c0-2.1-1.7-3.7-3.8-3.7c-2.1,0-3.7,1.7-3.7,3.7l0.4,28.5L38,87.1z
				"/>
		</g>
		<g>
			<path fill-rule="evenodd" fill="#E6E6E6" d="M37,86.1l-0.4-28.5c0-2.1-1.7-3.7-3.8-3.7c-2.1,0-3.7,1.7-3.7,3.7l0.4,28.5L37,86.1z
				"/>
		</g>
	</g>
</g>
<g>
</g>
<g>
</g>
<g>
</g>
<g>
</g>
<g>
</g>
<g>
</g>
</svg>
