<?xml version="1.0" encoding="utf-8"?>
<!-- Generator: Adobe Illustrator 16.0.4, SVG Export Plug-In . SVG Version: 6.00 Build 0)  -->
<!DOCTYPE svg PUBLIC "-//W3C//DTD SVG 1.1 Tiny//EN" "http://www.w3.org/Graphics/SVG/1.1/DTD/svg11-tiny.dtd">
<svg version="1.1" baseProfile="tiny" id="Layer_1" xmlns="http://www.w3.org/2000/svg" xmlns:xlink="http://www.w3.org/1999/xlink"
	 x="0px" y="0px" width="63.5px" height="297.6px" viewBox="0 0 63.5 297.6" xml:space="preserve">
<g>
	<path fill="#809ea7" d="M62.5,217.3h-7l-1-77.4h2.3l0-3.1h-4.3l-0.3-23.2h-1.6l-0.2-12.4h-1.6l-0.1-5.8h-2.9l-0.1-6h0.7l0-2.4
		l-4.1,0c-4.9-8.2-5.2-25.3-5.2-28.9h0.1c0.7,0,1.2-0.6,1.2-1.3c0-0.7-0.6-1.3-1.2-1.3h-1.2l0-2.3c0-0.2,0-0.4-0.1-0.6
		c0.8-0.1,1.5-0.8,1.4-1.6c0-0.9-0.7-1.6-1.6-1.6h-1.4c-0.4-8.1-0.7-16.3-1.1-24.4h0c0.6,0,1.1-0.5,1.1-1.2c0-0.7-0.5-1.2-1.2-1.2
		H33c-0.3-7.2-0.7-14.4-1-21.6C32,0.4,32,0,31.9,0c0,0-0.1,0.4-0.1,0.9c-0.1,7.2-0.3,14.4-0.4,21.6h-0.1c-0.6,0-1.1,0.5-1.1,1.2
		c0,0.7,0.5,1.2,1.2,1.2h0C31.2,33,31,41.2,30.9,49.3h-1.4c-0.9,0-1.6,0.7-1.5,1.6c0,0.9,0.7,1.6,1.5,1.6c0,0.2-0.1,0.4-0.1,0.6
		l0,2.3h-1.2c-0.7,0-1.2,0.6-1.2,1.3c0,0.7,0.6,1.3,1.2,1.3h0.1c0.1,3.6,0.2,20.7-4.5,28.9h-4.1l0,2.4h0.7l0.1,6h-3.2l0.1,5.8h-1.5
		l0.2,12.4l-3.3,0l0.3,23.2H9.5l0,3.1h2l1,77.4H5.3l1,80.2h57.2L62.5,217.3z"/>
	<g>
		<path fill="#F2F2F2" d="M1,297.6h57.2l-1-80.2h-7l-1-77.4h2.3l0-3.1h-4.3l-0.3-23.2h-1.6l-0.2-12.4h-1.6l-0.1-5.8h-2.9l-0.1-6h0.7
			l0-2.4l-4.1,0c-4.9-8.2-5.2-25.3-5.2-28.9h0.1c0.7,0,1.2-0.6,1.2-1.3c0-0.7-0.6-1.3-1.2-1.3h-1.2l0-2.3c0-0.2,0-0.4-0.1-0.6
			c0.8-0.1,1.5-0.8,1.4-1.6c0-0.9-0.7-1.6-1.6-1.6h-1.4c-0.4-8.1-0.7-16.3-1.1-24.4h0c0.6,0,1.1-0.5,1.1-1.2c0-0.7-0.5-1.2-1.2-1.2
			h-0.1c-0.3-7.2-0.7-14.4-1-21.6c0-0.5-0.1-0.9-0.1-0.9s-0.1,0.4-0.1,0.9c-0.1,7.2-0.3,14.4-0.4,21.6H26c-0.6,0-1.1,0.5-1.1,1.2
			c0,0.7,0.5,1.2,1.2,1.2h0c-0.2,8.1-0.3,16.3-0.5,24.4h-1.4c-0.9,0-1.6,0.7-1.5,1.6c0,0.9,0.7,1.6,1.5,1.6c0,0.2-0.1,0.4-0.1,0.6
			l0,2.3h-1.2c-0.7,0-1.2,0.6-1.2,1.3c0,0.7,0.6,1.3,1.2,1.3H23c0.1,3.6,0.2,20.7-4.5,28.9h-4.1l0,2.4h0.7l0.1,6H12l0.1,5.8h-1.5
			l0.2,12.4l-3.3,0l0.3,23.2H4.2l0,3.1h2l1,77.4H0L1,297.6z"/>
		<g>
			<path fill="#CCCCCC" d="M23.2,86.7c4.8,0.1,7.2,0.1,11.9,0c-3.1-7.8-3.6-16.8-3.9-25.2c-1.8,0-2.7,0-4.5,0
				C26.5,69.9,26.1,78.8,23.2,86.7z"/>
		</g>
		<g>
			<path fill="#E6E6E6" d="M21.6,85.6c4.8,0.1,7.2,0.1,11.9,0c-3.1-7.8-3.6-16.8-3.9-25.2c-1.8,0-2.7,0-4.5,0
				C24.9,68.8,24.5,77.8,21.6,85.6z"/>
		</g>
		<rect x="12.4" y="102.5" fill="#CCCCCC" width="31.5" height="10.4"/>
		<rect x="12.4" y="102.5" fill="#E6E6E6" width="30.3" height="9.5"/>
		<rect x="23.3" y="120.1" fill="#CCCCCC" width="11.2" height="98.2"/>
		<rect x="22.2" y="119.1" fill="#E6E6E6" width="11.2" height="98.2"/>
		<rect x="2.1" y="220.2" fill="#CCCCCC" width="53.3" height="72.1"/>
		<rect x="2.1" y="220.9" fill="#E6E6E6" width="51.5" height="70.2"/>
	</g>
</g>
<g>
</g>
<g>
</g>
<g>
</g>
<g>
</g>
<g>
</g>
<g>
</g>
</svg>
