<?xml version="1.0" encoding="utf-8"?>
<!-- Generator: Adobe Illustrator 16.0.4, SVG Export Plug-In . SVG Version: 6.00 Build 0)  -->
<!DOCTYPE svg PUBLIC "-//W3C//DTD SVG 1.1 Tiny//EN" "http://www.w3.org/Graphics/SVG/1.1/DTD/svg11-tiny.dtd">
<svg version="1.1" baseProfile="tiny" id="Layer_1" xmlns="http://www.w3.org/2000/svg" xmlns:xlink="http://www.w3.org/1999/xlink"
	 x="0px" y="0px" width="120px" height="37.7px" viewBox="0 0 120 37.7" xml:space="preserve">
<g>
	<g>
		<circle fill="#CCCCCC" cx="91.4" cy="30" r="7.8"/>
		<circle fill="#CCCCCC" cx="25.1" cy="30" r="7.8"/>
		<path fill="#CCCCCC" d="M119.9,25.3c-0.4-0.6-1.3-2.9-2.2-2.9c0,0,0-0.1,0-0.2l0,0c0-0.2,0-0.5,0-0.9c0-0.1,0-0.2,0-0.3
			c0,0,0,0,0,0c0-0.3,0-0.6,0-0.9c0,0,0,0,0,0c0-0.2,0-0.3,0-0.5c0,0,0,0,0-0.1c0-0.2,0-0.3-0.1-0.5c0,0,0,0,0-0.1
			c0-0.2-0.1-0.3-0.1-0.5c0,0,0,0,0,0c0-0.2-0.1-0.3-0.1-0.5c0,0,0,0,0,0c0-0.2-0.1-0.3-0.2-0.5c0,0,0,0,0,0
			c-0.1-0.1-0.1-0.3-0.2-0.4c0,0,0,0,0,0c-0.1-0.1-0.1-0.2-0.2-0.3c0,0,0,0,0-0.1c-0.1-0.1-0.2-0.2-0.3-0.3c0,0,0,0,0,0
			c-0.1-0.1-0.2-0.2-0.3-0.2c0,0,0,0,0,0c-0.1-0.1-0.3-0.1-0.4-0.2c-0.1,0-0.2-0.1-0.3-0.1c0,0,0,0-0.1,0c-0.1,0-0.2,0-0.3-0.1
			c0,0-0.1,0-0.1,0c-0.1,0-0.2,0-0.4-0.1c-4.2-0.8-15.8-1.2-15.8-1.2l-9.7-7.4c0,0-12.9-1.7-25.1-1.3c-12.2,0.3-16.1,3.9-19.7,6
			c-3.6,2.1-8.2,3.9-8.2,3.9s-14.7,1-18.6,1.3c-3.4,0.2-8.6,0.6-11,4.9c0,0-0.1,0.1-0.1,0.1c-0.1,0.1-0.1,0.3-0.2,0.4
			c0,0.1-0.1,0.1-0.1,0.2c-0.1,0.1-0.1,0.3-0.2,0.4c0,0.1,0,0.1-0.1,0.2c-0.1,0.2-0.1,0.4-0.2,0.6l-0.1,0.1l-2.4,2
			c0,0,0.3,2.8,2.9,5.3c0,0.6,9.8,0.2,9.8,0.2s-1-8.5,5.5-9.5c6.5-1,11.2-0.3,12.8,8.9H83c0,0-1.3-5.9,5.4-8.8
			c6.6-2.9,14.4,2.1,12.4,9.1c0,0,11.1-0.2,13.6-0.7C116.9,29.9,120.5,30.4,119.9,25.3z"/>
	</g>
	<g>
		<g>
			<g>
				<path fill="#94B7C6" d="M96.1,27.4c0,4.3-3.5,7.8-7.8,7.8c-4.3,0-7.8-3.5-7.8-7.8c0-4.3,3.5-7.8,7.8-7.8
					C92.7,19.6,96.1,23.1,96.1,27.4z"/>
				<path fill="#F2F2F2" d="M91.1,27.4c0,1.5-1.2,2.7-2.7,2.7c-1.5,0-2.7-1.2-2.7-2.7c0-1.5,1.2-2.7,2.7-2.7
					C89.9,24.7,91.1,25.9,91.1,27.4z"/>
			</g>
			<g>
				<circle fill="#94B7C6" cx="22.1" cy="27.4" r="7.8"/>
			</g>
			<path fill="#F2F2F2" d="M2.6,21.2L0,23.3c0,0,0.3,2.8,2.9,5.3c0,0.6,9.8,0.2,9.8,0.2s-1-8.5,5.5-9.5c6.5-1,11.2-0.3,12.8,8.9H80
				c0,0-1.3-5.9,5.4-8.8c6.6-2.9,14.4,2.1,12.4,9.1c0,0,11.1-0.2,13.6-0.6c2.5-0.5,6.1,0,5.5-5c-0.4-0.6-1.3-2.9-2.2-2.9
				c-0.3-0.3,0.5-5.7-2.2-6.6c-2.7-0.9-16.8-1.4-16.8-1.4l-9.7-7.4c0,0-12.9-1.7-25.1-1.3c-12.2,0.3-16.1,3.9-19.7,6
				C37.6,11.2,33,13,33,13s-14.7,1-18.6,1.3C10.5,14.6,4.3,15,2.6,21.2z"/>
			<path fill="#E6E6E6" d="M10.4,18.8c-0.8-0.6-2-0.6-3-0.5c-1.3,0.1-2.5,0.2-3.8,0.4c-0.5,0.7-0.8,1.5-1.1,2.5l-0.1,0.1h8.8
				C11.7,20.5,11.1,19.4,10.4,18.8z"/>
			<path fill="#CCCCCC" d="M114.7,19.7c-0.1-1,0.3-5.6-2.2-6.4c-0.2-0.1-0.6-0.2-1-0.2c-0.1,0.8-0.3,1.5-0.4,2.3
				c-0.3,1.4-0.5,2.9-0.7,4.4H114.7z"/>
			<path fill="#94B7C6" d="M38.8,13.6c0,0,10.7-6.8,12.3-7.5C52.8,5.4,61,5.4,61,5.4L59,13.5L38.8,13.6z"/>
			<path fill="#E6E6E6" d="M44.9,12.6c0,1.2-1.3,2.2-2.9,2.2h-0.8c-1.6,0-2.9-1-2.9-2.2l0,0c0-1.2,1.3-2.2,2.9-2.2H42
				C43.6,10.4,44.9,11.4,44.9,12.6L44.9,12.6z"/>
			<path fill="#94B7C6" d="M63.1,5.6l-0.8,7.6l21.7-0.3c0,0-2.9-6.1-3.5-6.7S63.1,5.6,63.1,5.6z"/>
			<rect x="62" fill="#CCCCCC" width="2" height="3.1"/>
			<path fill="#94B7C6" d="M86.7,5.2L86,5.5c0,0,6.3,5.9,7.4,6.3c1.1,0.5,1.8-0.3,1.8-0.3L86.7,5.2z"/>
			<g>
				<rect x="56.7" y="18.3" fill="#CCCCCC" width="2.3" height="2.3"/>
				<rect x="52.2" y="18.3" fill="#CCCCCC" width="2.3" height="2.3"/>
				<rect x="47.7" y="18.3" fill="#CCCCCC" width="2.3" height="2.3"/>
				<rect x="43.1" y="18.3" fill="#CCCCCC" width="2.3" height="2.3"/>
				<rect x="38.6" y="18.3" fill="#CCCCCC" width="2.3" height="2.3"/>
				<rect x="34.1" y="18.3" fill="#CCCCCC" width="2.3" height="2.3"/>
				<rect x="54.5" y="20.6" fill="#CCCCCC" width="2.3" height="2.3"/>
				<rect x="49.9" y="20.6" fill="#CCCCCC" width="2.3" height="2.3"/>
				<rect x="45.4" y="20.6" fill="#CCCCCC" width="2.3" height="2.3"/>
				<rect x="40.9" y="20.6" fill="#CCCCCC" width="2.3" height="2.3"/>
				<rect x="36.3" y="20.6" fill="#CCCCCC" width="2.3" height="2.3"/>
				<rect x="54.5" y="16" fill="#CCCCCC" width="2.3" height="2.3"/>
				<rect x="49.9" y="16" fill="#CCCCCC" width="2.3" height="2.3"/>
				<rect x="45.4" y="16" fill="#CCCCCC" width="2.3" height="2.3"/>
				<rect x="40.9" y="16" fill="#CCCCCC" width="2.3" height="2.3"/>
				<rect x="36.3" y="16" fill="#CCCCCC" width="2.3" height="2.3"/>
			</g>
		</g>
		<path fill="#F2F2F2" d="M24.8,27.4c0,1.5-1.2,2.7-2.7,2.7c-1.5,0-2.7-1.2-2.7-2.7s1.2-2.7,2.7-2.7C23.6,24.7,24.8,25.9,24.8,27.4z
			"/>
	</g>
	<rect x="62.9" y="1.3" fill="#CCCCCC" width="1.9" height="3.1"/>
</g>
<g>
</g>
<g>
</g>
<g>
</g>
<g>
</g>
<g>
</g>
<g>
</g>
</svg>
