<?xml version="1.0" encoding="utf-8"?>
<!-- Generator: Adobe Illustrator 16.0.4, SVG Export Plug-In . SVG Version: 6.00 Build 0)  -->
<!DOCTYPE svg PUBLIC "-//W3C//DTD SVG 1.1 Tiny//EN" "http://www.w3.org/Graphics/SVG/1.1/DTD/svg11-tiny.dtd">
<svg version="1.1" baseProfile="tiny" id="Layer_1" xmlns="http://www.w3.org/2000/svg" xmlns:xlink="http://www.w3.org/1999/xlink"
	 x="0px" y="0px" width="375px" height="1111.8px" viewBox="0 0 375 1111.8" xml:space="preserve">
<polygon fill="#F3F3BA" points="200.5,0.1 191.3,0 177.7,36.2 192.7,36.2 192.7,1111.8 223,1111.8 223,0.1 "/>
<polygon fill="#F3F3BA" points="156.1,0.1 146.9,0 133.3,36.2 147.4,36.2 147.4,1111.8 177.7,1111.8 177.7,0.1 "/>
<g>
	<path fill="#F3F3BA" d="M22.4,130.1c3.6,0.4,7.8,0,13.5-0.6c9.7-1.3,18.8-5.3,25.9-12c8.2-7.4,14.1-18.3,16.4-32.9h-0.6
		C70.7,93,60.8,97.9,48.5,97.9c-22.3,0-36.6-16.8-36.6-37.9c0-23.4,16.9-44,42.3-44c25.3,0,40.9,20.6,40.9,52.2
		c0,27.2-9.1,46.3-21.3,58.1c-9.5,9.3-22.7,15-36,16.6c-6.1,1-11.4,1.1-15.4,1V130.1z M28.5,58.9c0,15.4,9.3,26.3,23.8,26.3
		c11.2,0,20-5.5,24.4-12.9c1-1.5,1.5-3.4,1.5-6.1c0-21.1-7.8-37.3-25.3-37.3C38.6,28.8,28.5,41.4,28.5,58.9z"/>
</g>
<g>
	<path fill="#F3F3BA" d="M112.7,46.4c0-4.7,3.2-8.1,7.7-8.1c4.5,0,7.4,3.3,7.6,8.1c0,4.5-2.9,8-7.7,8
		C115.8,54.3,112.7,50.9,112.7,46.4z M112.7,91.6c0-4.7,3.2-8.1,7.7-8.1c4.5,0,7.4,3.3,7.6,8.1c0,4.5-2.9,8-7.7,8
		C115.8,99.6,112.7,96.1,112.7,91.6z"/>
</g>
<g>
</g>
<g>
</g>
<g>
</g>
<g>
</g>
<g>
</g>
<g>
</g>
</svg>
