<?xml version="1.0" encoding="utf-8"?>
<!-- Generator: Adobe Illustrator 16.0.4, SVG Export Plug-In . SVG Version: 6.00 Build 0)  -->
<!DOCTYPE svg PUBLIC "-//W3C//DTD SVG 1.1 Tiny//EN" "http://www.w3.org/Graphics/SVG/1.1/DTD/svg11-tiny.dtd">
<svg version="1.1" baseProfile="tiny" id="Layer_1" xmlns="http://www.w3.org/2000/svg" xmlns:xlink="http://www.w3.org/1999/xlink"
	 x="0px" y="0px" width="106.8px" height="53.8px" viewBox="0 0 106.8 53.8" xml:space="preserve">
<g>
	<path fill="#809ea7" d="M90.5,13.5c-2.5,0-4.8,0.6-6.9,1.5C79.2,8.4,71.6,4,63,4C55.4,4,48.6,7.4,44,12.8c-2.6-1.5-5.6-2.3-8.8-2.3
		c-6.7,0-12.6,3.7-15.7,9.2c-1.4-0.6-2.9-0.9-4.5-0.9C8.6,18.7,3.4,24,3.4,30.4c0,6.5,5.2,11.7,11.7,11.7c2.5,0,4.7-0.8,6.6-2.1
		c3.3,3.8,8.1,6.2,13.6,6.2c2.9,0,5.7-0.7,8.2-2C48,50.1,55,53.8,63,53.8c8.1,0,15.3-3.9,19.8-9.9c2.3,1.2,4.9,1.9,7.7,1.9
		c9,0,16.2-7.3,16.2-16.2C106.8,20.7,99.5,13.5,90.5,13.5z"/>
	<path fill="#F2F2F2" d="M87.2,9.4c-2.5,0-4.8,0.6-6.9,1.5C75.8,4.4,68.2,0,59.6,0C52,0,45.3,3.4,40.7,8.7c-2.6-1.5-5.6-2.3-8.8-2.3
		c-6.7,0-12.6,3.7-15.7,9.2c-1.4-0.6-2.9-0.9-4.5-0.9C5.2,14.7,0,20,0,26.4c0,6.5,5.2,11.7,11.7,11.7c2.5,0,4.7-0.8,6.6-2.1
		c3.3,3.8,8.1,6.2,13.6,6.2c2.9,0,5.7-0.7,8.2-2c4.6,5.8,11.6,9.5,19.6,9.5c8.1,0,15.3-3.9,19.8-9.9c2.3,1.2,4.9,1.9,7.7,1.9
		c9,0,16.2-7.3,16.2-16.2C103.4,16.7,96.1,9.4,87.2,9.4z"/>
</g>
<g>
</g>
<g>
</g>
<g>
</g>
<g>
</g>
<g>
</g>
<g>
</g>
</svg>
